<svg xmlns="http://www.w3.org/2000/svg" width="1200" height="630" viewBox="0 0 1200 630">
  <defs>
    <linearGradient id="bg" x1="0" y1="0" x2="0" y2="1">
      <stop offset="0" stop-color="#E8F6FE"/>
      <stop offset="0.5" stop-color="#FFFFFF"/>
    </linearGradient>
  </defs>
  <rect width="1200" height="630" fill="url(#bg)"/>
  <rect x="0" y="0" width="1200" height="8" fill="#0098EA"/>

  <!-- cat mascot mark -->
  <g transform="translate(96,84) scale(1.6)">
    <path d="M14 18 L12 2 L27 14 Z" fill="#0098EA"/>
    <path d="M42 18 L44 2 L29 14 Z" fill="#0098EA"/>
    <path d="M17 15 L16 6 L25 14 Z" fill="#CFEBFB"/>
    <path d="M39 15 L40 6 L31 14 Z" fill="#CFEBFB"/>
    <circle cx="28" cy="30" r="20" fill="#0098EA"/>
    <circle cx="21" cy="28" r="4" fill="#fff"/>
    <circle cx="35" cy="28" r="4" fill="#fff"/>
    <circle cx="21.8" cy="28.7" r="1.9" fill="#0B5E8E"/>
    <circle cx="35.8" cy="28.7" r="1.9" fill="#0B5E8E"/>
    <circle cx="21.1" cy="27.4" r="0.7" fill="#fff"/>
    <circle cx="35.1" cy="27.4" r="0.7" fill="#fff"/>
    <path d="M28 33 L30 36 L26 36 Z" fill="#FFB3C1"/>
    <path d="M28 36 q-2.6 3.4 -5 1.4" stroke="#fff" stroke-width="1.5" fill="none" stroke-linecap="round"/>
    <path d="M28 36 q2.6 3.4 5 1.4" stroke="#fff" stroke-width="1.5" fill="none" stroke-linecap="round"/>
    <g stroke="#fff" stroke-width="1" stroke-linecap="round" opacity="0.9">
      <line x1="17" y1="32" x2="5" y2="30"/>
      <line x1="17" y1="35" x2="5" y2="37"/>
      <line x1="39" y1="32" x2="51" y2="30"/>
      <line x1="39" y1="35" x2="51" y2="37"/>
    </g>
  </g>
  <text x="212" y="124" font-family="Menlo, monospace" font-size="22" letter-spacing="3" font-weight="700" fill="#0098EA">STON.FI HACKATHON · MIRA AI TRACK</text>

  <text x="94" y="318" font-family="'Helvetica Neue', Arial, sans-serif" font-size="120" font-weight="800" fill="#11151A">mira-harness</text>

  <text x="96" y="402" font-family="'Helvetica Neue', Arial, sans-serif" font-size="40" fill="#5B6B78">@mira lives in chat, not code.</text>
  <text x="96" y="454" font-family="'Helvetica Neue', Arial, sans-serif" font-size="40" font-weight="700" fill="#11151A">mira-harness bridges the gap.</text>

  <text x="96" y="566" font-family="Menlo, monospace" font-size="26" fill="#0077C0">CLI · Library · MCP</text>
  <text x="1104" y="566" text-anchor="end" font-family="Menlo, monospace" font-size="24" fill="#95A3AE">masashi-ono0611.github.io/mira-harness</text>
</svg>
